<?xml version="1.0" encoding="utf-8"?>
<!-- Generator: Adobe Illustrator 24.0.1, SVG Export Plug-In . SVG Version: 6.00 Build 0)  -->
<svg version="1.1" id="Layer_1" xmlns="http://www.w3.org/2000/svg" xmlns:xlink="http://www.w3.org/1999/xlink" x="0px" y="0px"
	 viewBox="0 0 742.66 227.46" style="enable-background:new 0 0 742.66 227.46;" xml:space="preserve">
<style type="text/css">
	.st0{fill:#0078BD;}
	.st1{fill:#F04923;}
	.st2{fill:#EF4923;}
	.st3{fill:#5A5A5C;}
	.st4{fill:#59595C;}
	.st5{fill:#FFFFFF;}
	.st6{fill-rule:evenodd;clip-rule:evenodd;fill:#FFFFFF;}
	.st7{fill:#164268;}
</style>
<g>
	<g>
		<polygon class="st0" points="19.61,179.58 54.9,179.58 63.33,108.68 108.58,108.75 70.84,43.85 36.33,43.74 		"/>
		<polygon class="st1" points="157.67,44.11 122.39,44.01 113.83,115.09 68.6,115.03 106.26,179.58 140.51,179.58 		"/>
	</g>
	<g>
		<g>
			<path class="st0" d="M547.27,43.46c-0.02-0.81-0.13-0.93-0.91-0.93c-2.36-0.02-4.72-0.02-7.09-0.02c-1.93,0-1.76-0.11-1.76,1.87
				v30.86c0,0.53-0.02,1.06-0.02,1.59c-0.02,0.36-0.23,0.53-0.57,0.55h-1.06c-1.42,0.02-2.82,0.02-4.25,0
				c-2.55,0-2.21,0.23-2.23-2.32V55.74c-0.04-0.83-0.11-0.91-0.91-0.91c-2.42-0.02-4.84-0.02-7.26-0.02c-1.59,0-1.53-0.09-1.53,1.57
				v18.97c0,0.47,0,0.96-0.02,1.42c0,0.34-0.19,0.55-0.51,0.59c-0.23,0.04-0.49,0.02-0.72,0.02c-4.18,0.02-8.39,0.02-12.6,0
				c-0.26,0-0.57,0.09-0.91-0.4c1.17-1.15,2.27-2.31,3.46-3.38c0.66-0.62,0.89-1.3,0.87-2.19c-0.02-5.03,0-10.05,0-15.08
				c0-1.59,0.06-1.53-1.57-1.53h-26.06c-0.36,0-0.72,0-1.06,0.04c-0.36,0.02-0.51,0.23-0.53,0.57v0.89c0,5.01,0.02,10.05-0.02,15.06
				c-0.02,1,0.32,1.68,1,2.32c1.08,1.02,2.08,2.1,3.12,3.14c0.04,0.09,0.08,0.23,0.04,0.32c-0.02,0.09-0.15,0.17-0.23,0.19
				c-0.23,0.04-0.47,0.04-0.7,0.04c-3.38,0.02-6.73,0.02-10.11,0c-0.23,0-0.47,0.02-0.7-0.02c-0.34-0.04-0.51-0.25-0.53-0.59v-1.42
				c-0.02-3.65-0.02-7.33,0-11c0-3.87-2.7-8.03-7.22-9.22c-0.81-0.23-1.64-0.3-2.46-0.32h-18.27c-0.23,0-0.47,0.02-0.7,0.02
				c-0.34,0.02-0.53,0.21-0.53,0.55c-0.02,0.49-0.02,0.96-0.02,1.42v16.67c0,0.42,0.02,0.83-0.02,1.25
				c-0.11,1.64-1.04,2.57-2.72,2.66c-1.13,0.04-2.25,0.02-3.38,0c-2.25,0-2.02,0.23-2.02-1.95V44.75c0-0.47,0.02-0.96,0-1.42
				c-0.02-0.7-0.13-0.81-0.87-0.81c-2.36-0.02-4.72-0.02-7.09-0.02c-1.89,0-1.83-0.15-1.83,1.83v38.49c0,0.4,0,0.83,0.04,1.23
				c0.02,0.25,0.17,0.42,0.45,0.47c0.17,0.04,0.34,0.06,0.51,0.06c4.8,0,9.58,0.02,14.38-0.02c2.51-0.02,4.74-0.91,6.58-2.66
				c0.26-0.23,0.53-0.47,0.79-0.7c0.17,0.13,0.34,0.21,0.47,0.34c2.1,2.17,4.69,3.04,7.67,3.04h89.93c1.81,0,1.74,0.06,1.74-1.74
				V44.71C547.29,44.29,547.29,43.88,547.27,43.46z M462.16,70.73v5.48c-0.02,1.06-0.11,1.17-1.06,1.17c-1.95,0.02-3.91,0.04-5.86,0
				c-1.87-0.04-2.85-1-2.87-2.87c-0.04-3.89-0.02-7.8,0-11.68c0-0.79,0.08-0.87,0.96-0.89c2,0,4.01-0.02,6.01,0.02
				c1.76,0.02,2.74,0.96,2.8,2.74C462.2,66.7,462.16,68.71,462.16,70.73z M499.5,71.77c0,0.49-0.13,0.89-0.49,1.25
				c-1.44,1.4-2.85,2.82-4.4,4.38c-1.57-1.57-2.97-2.99-4.4-4.4c-0.45-0.42-0.47-0.93-0.47-1.47c0.02-2.12,0-4.25,0.02-6.37
				c0-0.81-0.02-1.64,0-2.46c0.02-0.59,0.15-0.74,0.72-0.74c1-0.02,2-0.02,3.02-0.02h5.12c0.74,0.02,0.85,0.11,0.85,0.81
				c0.02,1.17,0.02,2.36,0.02,3.53C499.5,68.1,499.48,69.95,499.5,71.77z"/>
			<path class="st0" d="M371.44,42.52c-0.34-0.02-0.7-0.02-1.06-0.02h-5.84c-2.21,0.02-1.98-0.21-2,2.02v30.67
				c0,0.47,0.02,0.96,0,1.42c-0.02,0.57-0.17,0.74-0.72,0.76c-1.85,0.02-3.67,0-5.5,0.02c-2.1,0-1.91,0.11-1.91-1.93V44.8
				c0-0.42,0.02-0.83,0-1.25c-0.02-0.96-0.06-1.02-0.98-1.02c-2.25-0.02-4.5-0.02-6.75-0.02c-2.15,0.02-1.98-0.25-1.98,2.02v30.5
				c0,0.49,0.02,0.96,0,1.42c-0.04,0.79-0.17,0.93-0.96,0.93c-2.42,0.02-4.84,0-7.26-0.02c-0.11,0-0.21-0.08-0.53-0.19
				c0.3-1.15,0.62-2.23,0.62-3.36c0.02-3.12,0.09-6.27-0.02-9.39c-0.09-3.48-1.61-6.24-4.57-8.16c-1.7-1.08-3.57-1.49-5.56-1.47
				c-9.35,0.02-18.69,0-28.04,0c-1.78,0-1.68-0.04-1.68,1.78v18.63c0,0.47,0.02,0.93,0,1.42c-0.04,0.57-0.17,0.72-0.74,0.74
				c-1.36,0.02-2.72,0-4.08,0.02c-1.76,0-1.66,0-1.66-1.64V56.78c0-0.47-0.02-0.93-0.02-1.4c-0.02-0.36-0.21-0.53-0.55-0.55
				c-0.13,0-0.23-0.02-0.36-0.02c-5.44,0-10.88,0-16.31,0.02c-3.78,0-7.99,2.76-9.09,7.37c-0.23,0.91-0.3,1.85-0.3,2.8
				c0,5.61-0.04,11.24,0,16.84c0.04,3.14-1.08,5.63-3.7,7.41c-0.19,0.15-0.4,0.26-0.47,0.51c0.02,0.06,0.02,0.13,0.06,0.15
				c2.63,1.98,5.52,2.36,8.52,1.08c3.08-1.3,4.84-3.67,5.23-7.03c0.09-0.7,0.09-1.4,0.09-2.12V66.06c0-0.53-0.02-1.06,0.04-1.59
				c0.15-1.59,1.06-2.44,2.66-2.51c0.93-0.04,1.89-0.02,2.82-0.02c1.74,0,1.68-0.06,1.68,1.61v19.16c0,2-0.11,1.87,1.76,1.87h88.15
				c1.89,0,1.85,0.15,1.85-1.83V43.4C372.23,42.67,372.1,42.55,371.44,42.52z M326.77,74.11c0,0.3,0.02,0.59-0.02,0.89
				c-0.13,1.3-0.93,2.17-2.23,2.34c-0.42,0.06-0.83,0.04-1.25,0.04h-15.25c-0.34,0-0.7,0-1.04-0.04c-0.28,0-0.45-0.19-0.47-0.42
				c-0.02-0.3-0.02-0.59-0.02-0.89c0-4.25-0.02-8.52,0-12.77c0-1.3,0-1.32,1.4-1.32h15.42c0.42,0,0.83-0.02,1.25,0.04
				c1.17,0.15,2.04,1.02,2.19,2.21c0.04,0.34,0.02,0.7,0.02,1.06V74.11z"/>
			<path class="st0" d="M656.93,65.25c-0.13-4.42-3.12-8.03-7.35-9.13c-1-0.25-2-0.25-2.99-0.25c-5.2-0.02-10.41-0.02-15.61-0.02
				c-0.3,0-0.59,0-0.89-0.02c-0.02,0-0.04-0.11-0.04-0.17c0-0.04,0.02-0.13,0.04-0.15c0.3-0.17,0.62-0.36,0.93-0.49
				c2.7-1.19,5.31-2.55,7.8-4.16c2.21-1.4,4.27-2.99,6.05-4.91c1.08-1.17,2.02-2.44,2.78-3.87c0.34-0.64,0.34-1.19,0-1.83
				c-1.3-2.46-2.55-4.93-3.8-7.41c-0.11-0.21-0.25-0.38-0.51-0.4c-0.79,1.25-1.53,2.53-2.34,3.76c-3.65,5.63-8.45,10.15-13.91,14
				c-3.36,2.38-6.88,4.38-11.26,4.65c-0.06,2.68-0.13,5.16-0.19,7.63c-0.02,0.36,0.21,0.53,0.55,0.55c0.53,0.02,1.06,0.02,1.59,0.02
				c8.45-0.02,16.91-0.04,25.36-0.04c0.59-0.02,1.19-0.04,1.78,0.02c1.19,0.13,2.04,1,2.21,2.19c0.02,0.3,0.02,0.59,0.02,0.89v8.16
				c0,0.34,0,0.7-0.06,1.06c-0.19,1.02-0.81,1.7-1.81,1.95c-0.45,0.11-0.93,0.11-1.4,0.11c-10.64,0.02-21.28,0.02-31.92,0
				c-0.3,0-0.59,0-0.89-0.04c-0.26-0.04-0.4-0.21-0.45-0.47c-0.02-0.17-0.02-0.36-0.02-0.53c-0.02-0.4-0.02-0.83-0.02-1.23
				c0-5.97,0.02-11.94,0-17.93c0-0.74,0.34-1.68-0.23-2.19c-0.55-0.49-1.47-0.17-2.23-0.19h-15.78c-0.53,0-1.06,0-1.59,0.02
				c-4.95,0.06-9.26,4.25-9.32,9.3c-0.06,3.67-0.04,7.33-0.02,11c0.04,4.61,3.7,8.67,8.22,9.28c0.87,0.13,1.76,0.17,2.66,0.17h53.74
				c0.47,0,0.93,0.02,1.4-0.02c5.31-0.28,9.32-4.18,9.52-9.39C657.06,71.88,657.04,68.54,656.93,65.25z M600.88,76.21
				c0,1.06-0.09,1.17-1.04,1.17c-1.95,0.02-3.91,0.04-5.84,0c-1.89-0.04-2.87-1-2.89-2.87c-0.04-3.23,0-6.48-0.02-9.73
				c0-1.78,1.34-2.93,2.91-2.87c1.95,0.08,3.91,0.02,5.84,0.02c0.96,0.02,1.04,0.09,1.04,1c0.02,2.23,0.02,4.48,0.02,6.73
				C600.9,71.84,600.9,74.02,600.88,76.21z"/>
			<path class="st0" d="M239.81,55.27c-0.02-0.25-0.19-0.4-0.45-0.42c-0.19-0.02-0.36-0.04-0.53-0.04c-6.27,0-12.53,0-18.8,0.02
				c-0.72,0-1.42,0.09-2.1,0.28c-4.67,1.21-7.31,5.44-7.29,9.18c0.02,1.91-0.02,3.8,0,5.69c0.04,2.4-0.23,4.84,0.64,7.41h-8.09
				c-0.4,0-0.66-0.19-0.66-0.64c0-0.47-0.02-0.93-0.02-1.4V56.71c0-0.49,0-0.96-0.02-1.42c-0.02-0.25-0.21-0.42-0.47-0.45
				c-0.47-0.02-0.93-0.04-1.42-0.04h-16.84c-0.4,0-0.83,0-1.23,0.02c-4.52,0.09-8.71,3.78-9.11,8.37c-0.36,4.29-0.4,8.64,0.02,12.94
				c0.38,3.87,2.7,6.44,6.31,7.84c1.27,0.51,2.63,0.62,3.99,0.62h54.29c0.4,0,0.83-0.02,1.23-0.02c0.36-0.02,0.55-0.21,0.57-0.55
				c0.02-0.36,0.02-0.7,0.02-1.06V56.33C239.86,55.97,239.84,55.63,239.81,55.27z M192.72,69.8c0,2.23,0.02,4.48,0,6.71
				c0,0.76-0.08,0.87-0.79,0.87c-2.08,0.02-4.14,0.04-6.2-0.02c-1.76-0.04-2.68-1-2.7-2.8c-0.04-3.23,0.04-6.48-0.04-9.73
				c-0.04-1.53,1.15-2.97,2.85-2.91c2,0.08,4.01,0.02,6.01,0.02c0.81,0.02,0.87,0.09,0.87,0.96
				C192.75,65.19,192.72,67.5,192.72,69.8z M230.15,75.81c0,0.36,0,0.7-0.02,1.06c-0.04,0.25-0.21,0.4-0.47,0.47
				c-0.11,0.02-0.23,0.04-0.34,0.04c-2.06,0-4.14,0.04-6.2,0c-1.76-0.06-2.72-1.04-2.74-2.8c-0.06-3.25-0.04-6.5-0.02-9.75
				c0.04-1.87,1-2.85,2.85-2.87c2.06-0.04,4.14-0.02,6.2,0c0.57,0,0.74,0.17,0.74,0.74V75.81z"/>
			<path class="st0" d="M659.81,89.79c0.1-0.47,0.55-0.59,0.86-0.84c2.03-1.58,3.14-3.65,3.23-6.23c0.02-0.65,0.02-1.3,0.02-1.95
				c0-5.08,0-10.16,0-15.25c0-1.19,0.03-2.37,0.35-3.52c1.37-4.96,5.72-7.22,9.05-7.2c2.42,0.01,4.85,0,7.27-0.01
				c2.95,0,5.91-0.01,8.86,0c1.08,0,1.12,0.06,1.15,1.07c0.01,0.41,0,0.83,0,1.24c0,6.09,0,12.17,0,18.26
				c0,0.47,0.01,0.95,0.02,1.42c0.01,0.34,0.19,0.56,0.54,0.56c1.77,0.01,3.54,0.02,5.32,0.01c0.43,0,0.6-0.3,0.6-0.71
				c0-0.47,0.01-0.95,0.01-1.42c0-6.15,0-12.29,0-18.44c0-0.47,0.01-0.95,0.02-1.42c0.01-0.34,0.19-0.53,0.54-0.56
				c0.12-0.01,0.24-0.02,0.35-0.02c2.66,0,5.32-0.01,7.98,0.01c0.73,0,0.79,0.08,0.81,0.84c0.02,0.77,0.01,1.54,0.01,2.3
				c0,5.73,0,11.47,0,17.2c0,0.41-0.01,0.83,0,1.24c0.03,0.82,0.15,0.98,0.89,0.99c1.6,0.02,3.19,0.02,4.79,0
				c0.68-0.01,0.84-0.18,0.87-0.83c0.02-0.47,0.01-0.95,0.01-1.42c0-5.97,0-11.94,0-17.91c0-0.35,0-0.71,0-1.06
				c-0.01-1.38,0-1.36,1.37-1.36c2.42,0.01,4.85-0.01,7.27,0.01c1.03,0.01,1.04,0.03,1.06,1.13c0.01,0.65,0,1.3,0,1.95
				c0,8.16,0,16.31,0,24.47c0,0.47,0.01,0.95-0.01,1.42c-0.03,0.67-0.14,0.77-0.87,0.8c-0.35,0.01-0.71,0.01-1.06,0.01
				c-12.77,0-25.53,0-38.3,0c-2.24,0-1.99,0.17-1.99-2c-0.01-6.15,0-12.29,0-18.44c0-0.47,0.01-0.95-0.01-1.42
				c-0.02-0.63-0.12-0.76-0.7-0.77c-1.3-0.02-2.6-0.05-3.9,0.01c-1.46,0.06-2.4,1.02-2.51,2.47c-0.04,0.47-0.02,0.95-0.02,1.42
				c0,5.56-0.01,11.11,0,16.67c0,1.01-0.08,2-0.36,2.98c-1.64,5.68-8.52,8.05-13.31,4.58C659.92,90,659.87,89.89,659.81,89.79z"/>
			<path class="st0" d="M388.51,69.1c0-4.2,0-8.39,0-12.59c0-0.35,0.01-0.71,0.01-1.06c0.01-0.44,0.28-0.61,0.68-0.63
				c0.18-0.01,0.35-0.01,0.53-0.01c3.96,0,7.92,0,11.88,0c0.24,0,0.47-0.01,0.71,0.02c0.33,0.04,0.55,0.22,0.55,0.57
				c0.01,1.06,0.01,2.13,0.01,3.19c0,0.42-0.21,0.66-0.64,0.67c-0.41,0.01-0.83,0-1.24,0.03c-1.78,0.15-2.66,1.06-2.68,2.87
				c-0.03,3.55-0.01,7.09-0.01,10.64c0,2.72,0,5.44,0,8.15c0,0.41-0.02,0.83,0.02,1.24c0.11,1.16,0.79,1.98,1.93,2.25
				c0.51,0.12,1.05,0.13,1.58,0.14c1.12,0.02,2.25,0.01,3.37,0c0.73-0.01,1.4-0.2,1.95-0.71c0.5-0.46,0.8-1.02,0.83-1.71
				c0.02-0.53,0.02-1.06,0.02-1.6c0-7.92,0-15.84,0-23.75c0-0.47,0.01-0.95,0.02-1.42c0.01-0.35,0.22-0.54,0.55-0.57
				c0.35-0.03,0.71-0.02,1.06-0.02c2.3,0,4.61-0.01,6.91,0c1.23,0.01,1.23,0.02,1.25,1.32c0.01,0.83,0,1.65,0,2.48
				c0,7.5-0.01,15.01,0,22.51c0,1.25-0.1,2.48-0.47,3.67c-1.23,3.98-4.74,6.76-8.94,6.89c-3.48,0.11-6.98,0.13-10.46,0
				c-5.31-0.2-9.36-4.38-9.42-9.83c-0.04-3.31-0.01-6.62-0.01-9.93C388.51,70.99,388.51,70.04,388.51,69.1z"/>
			<path class="st0" d="M256.57,63.61c0,6.32,0,12.65,0,18.97c0,0.47,0.01,0.95-0.02,1.42c-0.02,0.32-0.2,0.55-0.56,0.56
				c-0.53,0.01-1.06,0.02-1.59,0.02c-2.25,0-4.49,0.01-6.74-0.01c-0.59,0-0.75-0.16-0.77-0.71c-0.02-0.41-0.01-0.83-0.01-1.24
				c0-12.71,0-25.41,0-38.12c0-2.22-0.21-1.98,1.99-1.99c1.95-0.01,3.9,0,5.85,0c0.35,0,0.71-0.01,1.06,0.01
				c0.6,0.03,0.75,0.16,0.78,0.71c0.02,0.47,0.01,0.95,0.01,1.42C256.57,50.96,256.57,57.29,256.57,63.61z"/>
			<path class="st0" d="M565.12,63.39c0,6.32,0,12.65,0,18.97c0,0.47,0.01,0.95-0.01,1.42c-0.02,0.6-0.16,0.78-0.71,0.78
				c-2.78,0.01-5.56,0-8.33,0c-0.42,0-0.64-0.25-0.66-0.66c-0.02-0.41-0.02-0.83-0.02-1.24c0-12.71,0-25.41,0-38.12
				c0-0.41-0.01-0.83,0.01-1.24c0.03-0.58,0.19-0.77,0.72-0.77c2.78-0.01,5.56-0.01,8.33,0c0.43,0,0.64,0.24,0.65,0.66
				c0.01,0.47,0.01,0.95,0.01,1.42C565.12,50.86,565.12,57.13,565.12,63.39z"/>
			<path class="st0" d="M403.08,50.63c-2.23-0.04-4.02-1.89-3.97-4.13c0.04-2.21,1.94-4.04,4.14-3.99c2.21,0.05,4.03,1.95,3.98,4.15
				C407.18,48.89,405.32,50.67,403.08,50.63z"/>
			<path class="st0" d="M706.93,42.77c2.27,0,4.04,1.77,4.03,4.03c0,2.24-1.83,4.08-4.04,4.07c-2.2-0.01-4.11-1.89-4.06-4.08
				C702.93,44.12,705.11,42.68,706.93,42.77z"/>
			<path class="st0" d="M192.77,50.63c-2.24,0-4.05-1.8-4.06-4.04c0-2.22,1.83-4.07,4.04-4.08c2.19,0,4.07,1.87,4.08,4.06
				C196.83,48.79,194.99,50.63,192.77,50.63z"/>
			<path class="st0" d="M604.9,46.53c0.02,2.27-1.74,4.07-3.98,4.1c-2.23,0.02-4.09-1.78-4.13-3.99c-0.04-2.18,1.83-4.09,4.02-4.12
				C603.03,42.48,604.88,44.3,604.9,46.53z"/>
			<path class="st0" d="M591.14,50.63c-2.25,0.01-4.04-1.77-4.05-4.03c-0.01-2.24,1.79-4.07,4.02-4.08
				c2.19-0.01,4.08,1.86,4.09,4.06C595.21,48.77,593.36,50.63,591.14,50.63z"/>
			<path class="st0" d="M519.62,50.63c-2.22-0.01-4.07-1.86-4.06-4.06c0.01-2.19,1.91-4.07,4.09-4.05c2.23,0.01,4.02,1.84,4.01,4.09
				C523.66,48.86,521.87,50.64,519.62,50.63z"/>
			<path class="st0" d="M706,37.87c-0.02,2.26-1.81,3.99-4.09,3.99c-2.32,0-4.02-1.89-4.02-4.08c-0.01-2.21,1.9-4.04,4.11-4.01
				C704.23,33.79,706.02,35.62,706,37.87z"/>
			<path class="st0" d="M692.85,46.84c-0.02-2.25,1.76-4.05,4.02-4.07c2.26-0.01,4.08,1.76,4.1,3.99c0.02,2.2-1.83,4.08-4.03,4.11
				C694.75,50.9,692.87,49.04,692.85,46.84z"/>
			<path class="st0" d="M229.28,46.67c-0.04,2.26-1.84,4-4.1,3.97c-2.24-0.04-3.99-1.86-3.95-4.13c0.04-2.24,1.9-4.05,4.11-3.98
				C227.3,42.58,229.34,44.14,229.28,46.67z"/>
			<path class="st0" d="M187.04,46.57c0.01,2.27-1.76,4.05-4.01,4.06c-2.24,0.01-4.04-1.78-4.05-4.03
				c-0.01-2.23,1.81-4.07,4.02-4.08C185.23,42.51,187.03,44.32,187.04,46.57z"/>
		</g>
	</g>
	<g>
		<path class="st2" d="M172.39,141.11l1.33-3.12l8.18-21.09l0.86-2.36c0.25-0.69,0.6-1.69,1.05-2.99c2.11,0.03,3.65,0.04,4.62,0.04
			c1.69,0,3.25-0.01,4.68-0.04l3.09,9.03l6.24,17.37l1.21,3.16c-2.07-0.03-3.33-0.04-3.78-0.04c-1.01,0-2.49,0.01-4.44,0.04
			c-0.65-2.38-1.56-5.18-2.72-8.4h-9.04c-0.91,2.54-1.84,5.34-2.79,8.4c-2.23-0.03-3.6-0.04-4.1-0.04
			C175.88,141.07,174.41,141.09,172.39,141.11z M185.52,126.41h5.58c-1.65-5.09-2.56-7.89-2.72-8.41c-0.68,2.12-1.26,3.86-1.74,5.21
			L185.52,126.41z"/>
		<path class="st2" d="M205.36,141.11c0.12-3.41,0.19-6.19,0.21-8.34c0.05-3.93,0.03-7.83-0.04-11.71
			c-0.08-3.88-0.18-7.05-0.31-9.52c1.63,0.03,3.07,0.04,4.33,0.04c0.85,0,2.07-0.01,3.66-0.04l-0.02,7.84l0.1,12.26l0.09,3.01
			c2.06,0.04,3.4,0.07,4.03,0.07c3.15,0,5.53-0.05,7.14-0.15l-0.05,6.54c-3.15-0.03-6.15-0.04-9-0.04
			C211.63,141.07,208.26,141.09,205.36,141.11z"/>
		<path class="st2" d="M224.79,132.62c0.03-2.1,0.02-4.11-0.05-6.02c1.7,0.06,3.31,0.09,4.82,0.09c1.53,0,3.14-0.03,4.83-0.09
			c-0.05,1.87-0.03,3.88,0.05,6.02c-1.7-0.04-3.31-0.07-4.83-0.07C228.08,132.56,226.48,132.58,224.79,132.62z"/>
		<path class="st2" d="M236.93,141.11l0.12-4.55l-0.11-15.42l-0.13-6.22l-0.18-3.38c1.86,0.03,3.5,0.04,4.93,0.04
			c1.02,0,2.45-0.01,4.3-0.04l8.55,16.81l1.19,2.47c0.01-2.43-0.03-5.83-0.12-10.2c-0.09-4.38-0.18-7.4-0.26-9.08
			c1.47,0.03,2.65,0.04,3.54,0.04c0.41,0,1.58-0.01,3.51-0.04l-0.09,6.45l0.13,17.93l0.16,5.18c-1.56-0.03-3.02-0.04-4.37-0.04
			c-1.13,0-2.68,0.01-4.67,0.04c-0.7-1.42-1.21-2.44-1.54-3.08l-3.34-6.17c-1.1-2.02-2.11-3.96-3.05-5.81
			c-0.61-1.17-1.25-2.46-1.91-3.86l0.15,10.27l0.27,8.64c-1.48-0.03-2.61-0.04-3.39-0.04C239.96,141.07,238.73,141.09,236.93,141.11
			z"/>
		<path class="st2" d="M280.35,110.99c1.92,0,3.78,0.31,5.58,0.93c1.8,0.62,3.41,1.61,4.81,2.98c1.4,1.36,2.48,2.93,3.23,4.71
			c0.75,1.78,1.19,3.82,1.31,6.13c0.13,2.43-0.12,4.65-0.74,6.68c-0.62,2.03-1.57,3.75-2.86,5.16c-1.29,1.42-2.86,2.45-4.72,3.11
			c-1.86,0.66-3.81,0.99-5.86,0.99c-2.02,0-3.98-0.32-5.87-0.96c-1.89-0.64-3.56-1.68-5-3.12c-1.45-1.44-2.5-3.04-3.17-4.8
			c-0.67-1.76-1.06-3.72-1.17-5.87c-0.17-3.16,0.3-5.94,1.39-8.33c1.09-2.39,2.79-4.26,5.11-5.6
			C274.7,111.66,277.36,110.99,280.35,110.99z M280.37,117.51c-1.38,0-2.6,0.41-3.67,1.22c-1.07,0.82-1.87,1.95-2.39,3.4
			c-0.52,1.45-0.74,3.01-0.65,4.67c0.08,1.53,0.43,2.93,1.04,4.2c0.61,1.27,1.49,2.26,2.64,2.98c1.15,0.71,2.35,1.07,3.59,1.07
			c1.33,0,2.53-0.4,3.59-1.2c1.07-0.8,1.85-1.93,2.36-3.38c0.5-1.45,0.72-2.97,0.63-4.56c-0.08-1.54-0.43-2.97-1.03-4.28
			c-0.61-1.31-1.45-2.32-2.53-3.04C282.86,117.87,281.67,117.51,280.37,117.51z"/>
		<path class="st2" d="M295.74,141.11l1.33-3.12l8.18-21.09l0.86-2.36c0.25-0.69,0.6-1.69,1.05-2.99c2.11,0.03,3.65,0.04,4.62,0.04
			c1.69,0,3.25-0.01,4.68-0.04l3.09,9.03l6.24,17.37l1.21,3.16c-2.08-0.03-3.33-0.04-3.78-0.04c-1.01,0-2.49,0.01-4.44,0.04
			c-0.65-2.38-1.56-5.18-2.72-8.4h-9.04c-0.91,2.54-1.84,5.34-2.79,8.4c-2.23-0.03-3.6-0.04-4.1-0.04
			C299.23,141.07,297.76,141.09,295.74,141.11z M308.87,126.41h5.58c-1.65-5.09-2.56-7.89-2.72-8.41c-0.68,2.12-1.26,3.86-1.74,5.21
			L308.87,126.41z"/>
		<path class="st2" d="M328.47,141.11l0.22-4.37l0.31-15.18l0.03-10.01c2.21,0.03,3.95,0.04,5.21,0.04c1.05,0,2.64-0.01,4.79-0.04
			c0.22,1.24,0.4,2.18,0.54,2.83c0.14,0.64,0.47,1.9,0.99,3.77c0.52,1.87,0.95,3.49,1.28,4.85c0.33,1.36,0.84,3.7,1.52,7.01
			c0.41-2.27,0.79-4.22,1.13-5.85c0.35-1.63,0.79-3.49,1.33-5.57c0.54-2.08,0.88-3.44,1.02-4.08c0.14-0.64,0.33-1.63,0.56-2.96
			c1.8,0.03,3.56,0.04,5.28,0.04c1.17,0,2.8-0.01,4.88-0.04c0.03,4.87,0.1,9.05,0.21,12.54c0.2,6.84,0.37,11.55,0.51,14.12
			c0.03,0.53,0.09,1.5,0.19,2.9c-1.58-0.03-2.69-0.04-3.32-0.04c-0.92,0-2.05,0.01-3.39,0.04c0.03-1.3-0.01-4.39-0.12-9.28
			s-0.2-8.01-0.27-9.37c-0.03-0.59-0.09-1.42-0.16-2.47l-1.89,8.81l-2.74,12.3c-1.56-0.03-2.63-0.04-3.22-0.04
			c-0.74,0-1.88,0.01-3.41,0.04l-2.84-11.91l-1.63-6.35c-0.06-0.25-0.13-0.55-0.21-0.91c-0.08-0.36-0.21-1-0.39-1.91l-0.14,6
			l0.05,12.3l0.09,2.77c-1.65-0.03-2.71-0.04-3.16-0.04C331.08,141.07,330,141.09,328.47,141.11z"/>
		<path class="st2" d="M359.54,141.11l1.33-3.12l8.18-21.09l0.87-2.36c0.25-0.69,0.6-1.69,1.05-2.99c2.11,0.03,3.65,0.04,4.62,0.04
			c1.69,0,3.25-0.01,4.68-0.04l3.09,9.03l6.24,17.37l1.21,3.16c-2.08-0.03-3.33-0.04-3.78-0.04c-1.01,0-2.49,0.01-4.44,0.04
			c-0.65-2.38-1.56-5.18-2.72-8.4h-9.04c-0.91,2.54-1.84,5.34-2.79,8.4c-2.23-0.03-3.6-0.04-4.1-0.04
			C363.03,141.07,361.56,141.09,359.54,141.11z M372.67,126.41h5.58c-1.65-5.09-2.56-7.89-2.72-8.41c-0.68,2.12-1.26,3.86-1.74,5.21
			L372.67,126.41z"/>
		<path class="st2" d="M392.7,141.11l0.12-4.55l-0.11-15.42l-0.13-6.22l-0.18-3.38c1.86,0.03,3.5,0.04,4.93,0.04
			c1.02,0,2.45-0.01,4.3-0.04l8.55,16.81l1.19,2.47c0.01-2.43-0.03-5.83-0.12-10.2c-0.09-4.38-0.18-7.4-0.26-9.08
			c1.47,0.03,2.65,0.04,3.54,0.04c0.41,0,1.58-0.01,3.51-0.04l-0.09,6.45l0.13,17.93l0.16,5.18c-1.56-0.03-3.02-0.04-4.37-0.04
			c-1.13,0-2.68,0.01-4.67,0.04c-0.7-1.42-1.21-2.44-1.54-3.08l-3.34-6.17c-1.1-2.02-2.11-3.96-3.05-5.81
			c-0.61-1.17-1.25-2.46-1.91-3.86l0.15,10.27l0.27,8.64c-1.48-0.03-2.61-0.04-3.39-0.04C395.74,141.07,394.51,141.09,392.7,141.11z
			"/>
		<path class="st2" d="M432.05,141.11c0.1-3.72,0.16-6.84,0.17-9.36c0.01-2.51-0.03-5.85-0.11-10.02c-0.08-4.16-0.16-6.93-0.23-8.28
			l-0.12-1.91c2.83,0.03,6.24,0.04,10.25,0.04c3.7,0,6.96-0.01,9.78-0.04l0,0.71c0,0.17,0,0.8,0.01,1.88l0.02,2.35
			c0,0.5,0.02,1.02,0.04,1.53c-2.32-0.11-4.26-0.17-5.83-0.17c-1.72,0-2.89,0-3.49,0.01c-0.6,0.01-1.55,0.04-2.82,0.1l0.04,4.98
			c1.42,0.04,3.06,0.07,4.94,0.07c0.67,0,2.45-0.05,5.34-0.15c-0.02,1.85-0.02,4.05,0,6.61c-2.07-0.03-3.66-0.04-4.78-0.04
			c-1.65,0-3.5,0.05-5.54,0.15l0.06,5.26h2.06c0.61,0,1.87-0.02,3.78-0.06l3.71-0.11c0.55-0.01,1.47-0.07,2.75-0.17
			c-0.03,2.14-0.04,4.35-0.01,6.63c-2.92-0.03-6.13-0.04-9.61-0.04l-7.9,0.02L432.05,141.11z"/>
		<path class="st2" d="M452.84,141.11c1.29-2.14,2.85-4.82,4.69-8.06c1.84-3.23,3.25-5.8,4.26-7.71l-2.34-4.31
			c-0.44-0.78-1.06-1.87-1.88-3.27l-1.97-3.36c-0.49-0.84-1.03-1.79-1.64-2.86c1.55,0.03,3.13,0.04,4.74,0.04
			c1.28,0,2.65-0.01,4.11-0.04c0.59,1.26,1.28,2.62,2.07,4.08c0.79,1.47,1.42,2.74,1.9,3.82c0.43-1,1.01-2.23,1.76-3.71
			c0.75-1.48,1.4-2.88,1.95-4.19c1.27,0.03,2.65,0.04,4.15,0.04c0.97,0,2.35-0.01,4.13-0.04c-0.78,1.49-1.95,3.6-3.51,6.32
			c-1.56,2.73-3.03,5.42-4.41,8.08c2.15,3.99,5.05,9.04,8.7,15.16c-1.89-0.03-3.31-0.04-4.26-0.04c-1.58,0-3.14,0.01-4.68,0.04
			c-0.53-1.15-1.26-2.62-2.2-4.39c-0.94-1.77-1.75-3.4-2.46-4.88c-0.41,1.01-1.11,2.43-2.08,4.27c-0.97,1.83-1.82,3.5-2.56,5
			c-1.75-0.03-3.13-0.04-4.15-0.04C456.04,141.07,454.6,141.09,452.84,141.11z"/>
		<path class="st2" d="M502.35,133.9c-0.1,0.85-0.21,2.03-0.33,3.55c-0.12,1.52-0.2,2.7-0.23,3.53c-2.54,0.46-4.81,0.69-6.82,0.69
			c-1.94,0-3.76-0.29-5.46-0.88c-1.7-0.58-3.28-1.54-4.75-2.88c-1.46-1.34-2.54-2.91-3.24-4.71c-0.69-1.8-1.1-3.83-1.22-6.06
			c-0.14-2.61,0.14-4.96,0.84-7.05c0.7-2.09,1.77-3.83,3.21-5.22c1.44-1.39,3.05-2.39,4.83-2.99c1.78-0.6,3.63-0.9,5.56-0.9
			c1.77,0,3.98,0.27,6.62,0.82l0.13,1.82c0.07,0.79,0.15,1.67,0.25,2.62l0.26,2.47c-1.42-0.4-2.57-0.68-3.45-0.82
			c-0.88-0.14-1.68-0.22-2.43-0.22c-1.62,0-3.05,0.39-4.3,1.17c-1.25,0.78-2.21,1.91-2.87,3.4c-0.66,1.49-0.95,3.13-0.85,4.94
			c0.09,1.65,0.47,3.06,1.16,4.23c0.68,1.18,1.57,2.09,2.67,2.73c1.09,0.64,2.42,0.96,3.97,0.96c0.85,0,1.77-0.08,2.76-0.25
			C499.63,134.7,500.86,134.38,502.35,133.9z"/>
		<path class="st2" d="M506.23,141.11l0.08-11.82l-0.13-8.62l-0.11-3.83c-0.03-1.11-0.08-2.18-0.13-3.21l-0.13-2.08
			c1.88,0.03,3.29,0.04,4.23,0.04c0.73,0,2-0.01,3.81-0.04c-0.07,4.14-0.06,7.8,0.03,10.98h9.77c0-1.19-0.03-2.79-0.08-4.81
			c-0.05-2.02-0.1-3.4-0.14-4.13c-0.02-0.39-0.07-1.07-0.14-2.04l4.25,0.04c0.44,0,1.7-0.01,3.76-0.04
			c-0.04,7.42-0.02,12.94,0.05,16.56c0.07,3.62,0.24,7.95,0.5,13.01l-3.92-0.04c-0.59,0-1.99,0.01-4.2,0.04
			c0.12-3.44,0.11-7.44-0.02-12h-9.78l0.33,12l-4.17-0.04C509.54,141.07,508.26,141.09,506.23,141.11z"/>
		<path class="st2" d="M533.04,141.11l1.33-3.12l8.18-21.09l0.86-2.36c0.25-0.69,0.6-1.69,1.05-2.99c2.11,0.03,3.65,0.04,4.62,0.04
			c1.69,0,3.25-0.01,4.68-0.04l3.09,9.03l6.24,17.37l1.21,3.16c-2.08-0.03-3.33-0.04-3.78-0.04c-1.01,0-2.49,0.01-4.44,0.04
			c-0.65-2.38-1.56-5.18-2.72-8.4h-9.04c-0.91,2.54-1.84,5.34-2.79,8.4c-2.23-0.03-3.6-0.04-4.1-0.04
			C536.53,141.07,535.06,141.09,533.04,141.11z M546.17,126.41h5.58c-1.65-5.09-2.56-7.89-2.72-8.41c-0.68,2.12-1.26,3.86-1.74,5.21
			L546.17,126.41z"/>
		<path class="st2" d="M566.2,141.11l0.12-4.55l-0.11-15.42l-0.13-6.22l-0.18-3.38c1.86,0.03,3.5,0.04,4.93,0.04
			c1.02,0,2.45-0.01,4.3-0.04l8.55,16.81l1.19,2.47c0.01-2.43-0.03-5.83-0.12-10.2c-0.09-4.38-0.18-7.4-0.26-9.08
			c1.47,0.03,2.65,0.04,3.54,0.04c0.41,0,1.58-0.01,3.51-0.04l-0.09,6.45l0.13,17.93l0.16,5.18c-1.56-0.03-3.02-0.04-4.37-0.04
			c-1.13,0-2.68,0.01-4.67,0.04c-0.7-1.42-1.21-2.44-1.54-3.08l-3.34-6.17c-1.1-2.02-2.11-3.96-3.05-5.81
			c-0.61-1.17-1.25-2.46-1.91-3.86l0.15,10.27l0.27,8.64c-1.48-0.03-2.61-0.04-3.39-0.04C569.24,141.07,568,141.09,566.2,141.11z"/>
		<path class="st2" d="M609.88,123.88c1.64,0.03,3.2,0.04,4.69,0.04c2.54,0,4.52-0.01,5.96-0.04c-0.05,1.98-0.06,4.78-0.03,8.4
			c0.03,3.62,0.07,6.36,0.13,8.21c-1.36,0.3-2.49,0.52-3.39,0.66c-0.9,0.14-1.98,0.26-3.24,0.37c-1.26,0.11-2.39,0.16-3.39,0.16
			c-1.63,0-3.23-0.16-4.82-0.48c-1.59-0.32-3.02-0.83-4.29-1.54c-1.28-0.71-2.36-1.67-3.25-2.88c-0.89-1.21-1.6-2.65-2.14-4.31
			c-0.54-1.66-0.85-3.38-0.94-5.15c-0.15-2.93,0.31-5.65,1.39-8.16c1.08-2.51,2.71-4.5,4.9-5.97c2.19-1.47,5.08-2.2,8.67-2.2
			c2.62,0,5.54,0.38,8.77,1.15c0.11,2.11,0.31,4.45,0.6,7.04c-0.88-0.35-1.59-0.61-2.13-0.79c-0.54-0.18-1.17-0.35-1.89-0.5
			c-0.72-0.15-1.4-0.26-2.05-0.34c-0.64-0.07-1.22-0.11-1.72-0.11c-1.32,0-2.55,0.23-3.7,0.68c-1.15,0.45-2.12,1.16-2.92,2.1
			s-1.37,2.08-1.72,3.39c-0.35,1.31-0.49,2.7-0.41,4.16c0.08,1.49,0.39,2.81,0.93,3.97c0.54,1.16,1.35,2.05,2.42,2.65
			c1.07,0.61,2.25,0.91,3.53,0.91c1.07,0,2.22-0.19,3.47-0.56l-0.04-4.7c-0.78-0.04-1.25-0.07-1.39-0.07l-1.91,0.02l-0.01-2.66
			c0-0.29-0.01-0.7-0.01-1.25S609.93,124.81,609.88,123.88z"/>
		<path class="st2" d="M625.05,141.11c0.1-3.72,0.16-6.84,0.17-9.36c0.01-2.51-0.03-5.85-0.11-10.02c-0.08-4.16-0.16-6.93-0.23-8.28
			l-0.12-1.91c2.83,0.03,6.24,0.04,10.25,0.04c3.7,0,6.96-0.01,9.78-0.04l0,0.71c0,0.17,0,0.8,0.01,1.88l0.02,2.35
			c0,0.5,0.02,1.02,0.04,1.53c-2.32-0.11-4.26-0.17-5.83-0.17c-1.72,0-2.89,0-3.49,0.01c-0.6,0.01-1.55,0.04-2.82,0.1l0.04,4.98
			c1.42,0.04,3.06,0.07,4.94,0.07c0.67,0,2.45-0.05,5.34-0.15c-0.02,1.85-0.02,4.05,0,6.61c-2.07-0.03-3.66-0.04-4.78-0.04
			c-1.65,0-3.5,0.05-5.54,0.15l0.06,5.26h2.06c0.61,0,1.87-0.02,3.78-0.06l3.71-0.11c0.55-0.01,1.47-0.07,2.75-0.17
			c-0.03,2.14-0.04,4.35-0.01,6.63c-2.92-0.03-6.13-0.04-9.61-0.04l-7.9,0.02L625.05,141.11z"/>
		<path class="st2" d="M679.35,133.9c-0.1,0.85-0.21,2.03-0.33,3.55c-0.12,1.52-0.2,2.7-0.23,3.53c-2.54,0.46-4.81,0.69-6.82,0.69
			c-1.94,0-3.76-0.29-5.46-0.88c-1.7-0.58-3.28-1.54-4.75-2.88c-1.47-1.34-2.54-2.91-3.24-4.71c-0.69-1.8-1.1-3.83-1.22-6.06
			c-0.14-2.61,0.14-4.96,0.84-7.05c0.7-2.09,1.77-3.83,3.21-5.22c1.44-1.39,3.05-2.39,4.83-2.99c1.78-0.6,3.63-0.9,5.55-0.9
			c1.77,0,3.98,0.27,6.62,0.82l0.13,1.82c0.07,0.79,0.15,1.67,0.24,2.62l0.26,2.47c-1.42-0.4-2.57-0.68-3.45-0.82
			c-0.88-0.14-1.68-0.22-2.43-0.22c-1.62,0-3.05,0.39-4.3,1.17c-1.25,0.78-2.21,1.91-2.87,3.4c-0.66,1.49-0.95,3.13-0.85,4.94
			c0.09,1.65,0.47,3.06,1.16,4.23c0.68,1.18,1.57,2.09,2.67,2.73c1.09,0.64,2.42,0.96,3.97,0.96c0.85,0,1.77-0.08,2.76-0.25
			C676.63,134.7,677.86,134.38,679.35,133.9z"/>
		<path class="st2" d="M696.41,110.99c1.92,0,3.78,0.31,5.58,0.93c1.8,0.62,3.41,1.61,4.81,2.98c1.4,1.36,2.48,2.93,3.23,4.71
			c0.75,1.78,1.19,3.82,1.31,6.13c0.13,2.43-0.12,4.65-0.74,6.68c-0.62,2.03-1.57,3.75-2.86,5.16c-1.29,1.42-2.86,2.45-4.72,3.11
			c-1.86,0.66-3.81,0.99-5.86,0.99c-2.02,0-3.98-0.32-5.87-0.96c-1.89-0.64-3.56-1.68-5-3.12c-1.45-1.44-2.5-3.04-3.17-4.8
			c-0.67-1.76-1.06-3.72-1.17-5.87c-0.17-3.16,0.3-5.94,1.39-8.33c1.09-2.39,2.79-4.26,5.11-5.6
			C690.76,111.66,693.42,110.99,696.41,110.99z M696.43,117.51c-1.38,0-2.6,0.41-3.67,1.22c-1.07,0.82-1.87,1.95-2.39,3.4
			c-0.52,1.45-0.74,3.01-0.65,4.67c0.08,1.53,0.43,2.93,1.04,4.2c0.61,1.27,1.49,2.26,2.64,2.98c1.15,0.71,2.35,1.07,3.59,1.07
			c1.33,0,2.53-0.4,3.59-1.2c1.07-0.8,1.85-1.93,2.36-3.38c0.5-1.45,0.72-2.97,0.63-4.56c-0.08-1.54-0.43-2.97-1.03-4.28
			c-0.61-1.31-1.45-2.32-2.53-3.04C698.92,117.87,697.73,117.51,696.43,117.51z"/>
		<path class="st2" d="M714.97,141.11c-0.01-1.93-0.06-4.55-0.16-7.84l3.7,0.07c0.4,0,1.43-0.02,3.12-0.07
			c-0.01,1.57,0.02,4.19,0.09,7.84l-3.13-0.04C718.37,141.07,717.16,141.09,714.97,141.11z"/>
	</g>
	<g>
		<path class="st3" d="M186.26,176.95h-8.36v6.52h9.34v3.32h-13.39v-22.18h12.9v3.33h-8.85v5.72h8.36V176.95z"/>
		<path class="st3" d="M190.54,183.07c0.92,0.56,2.66,1.15,4.11,1.15c1.78,0,2.57-0.72,2.57-1.78c0-1.09-0.66-1.64-2.63-2.34
			c-3.13-1.09-4.44-2.8-4.41-4.67c0-2.83,2.34-5.04,6.05-5.04c1.78,0,3.32,0.46,4.25,0.96l-0.79,2.86c-0.69-0.4-1.98-0.92-3.39-0.92
			c-1.45,0-2.24,0.69-2.24,1.68c0,1.02,0.76,1.51,2.8,2.24c2.9,1.05,4.24,2.54,4.28,4.9c0,2.9-2.27,5-6.51,5
			c-1.94,0-3.69-0.46-4.87-1.12L190.54,183.07z"/>
		<path class="st3" d="M209.1,166.19v4.57h3.85v3.03h-3.85v7.08c0,1.94,0.53,2.96,2.07,2.96c0.69,0,1.22-0.1,1.58-0.2l0.06,3.09
			c-0.59,0.23-1.64,0.4-2.93,0.4c-1.48,0-2.73-0.49-3.49-1.32c-0.85-0.92-1.25-2.37-1.25-4.48v-7.54h-2.3v-3.03h2.3v-3.62
			L209.1,166.19z"/>
		<path class="st3" d="M225.03,186.79l-0.26-1.78h-0.1c-0.99,1.25-2.66,2.14-4.74,2.14c-3.22,0-5.03-2.34-5.03-4.77
			c0-4.05,3.59-6.09,9.51-6.05v-0.26c0-1.05-0.43-2.8-3.26-2.8c-1.58,0-3.22,0.49-4.31,1.18l-0.79-2.63
			c1.18-0.72,3.26-1.42,5.79-1.42c5.13,0,6.61,3.26,6.61,6.75v5.79c0,1.45,0.06,2.86,0.23,3.85H225.03z M224.51,178.96
			c-2.86-0.07-5.59,0.56-5.59,2.99c0,1.58,1.02,2.3,2.3,2.3c1.61,0,2.8-1.05,3.16-2.21c0.1-0.3,0.13-0.63,0.13-0.89V178.96z"/>
		<path class="st3" d="M232.6,186.79c0.07-1.09,0.13-2.86,0.13-4.51v-18.85h4.05v9.54h0.07c0.99-1.55,2.73-2.57,5.13-2.57
			c3.92,0,6.71,3.26,6.68,8.13c0,5.76-3.65,8.62-7.27,8.62c-2.07,0-3.91-0.79-5.07-2.76h-0.07l-0.2,2.4H232.6z M236.78,180.18
			c0,0.33,0.03,0.66,0.1,0.95c0.43,1.61,1.84,2.83,3.59,2.83c2.54,0,4.08-2.04,4.08-5.26c0-2.83-1.35-5.14-4.05-5.14
			c-1.64,0-3.12,1.19-3.59,2.96c-0.06,0.3-0.13,0.66-0.13,1.05V180.18z"/>
		<path class="st3" d="M251.98,163.43h4.08v23.36h-4.08V163.43z"/>
		<path class="st3" d="M264.75,166.29c0,1.22-0.89,2.17-2.3,2.17c-1.35,0-2.24-0.96-2.24-2.17c0-1.25,0.92-2.21,2.27-2.21
			C263.86,164.08,264.72,165.04,264.75,166.29z M260.44,186.79v-16.03h4.08v16.03H260.44z"/>
		<path class="st3" d="M268.67,183.07c0.92,0.56,2.66,1.15,4.11,1.15c1.78,0,2.57-0.72,2.57-1.78c0-1.09-0.66-1.64-2.63-2.34
			c-3.13-1.09-4.44-2.8-4.41-4.67c0-2.83,2.34-5.04,6.05-5.04c1.78,0,3.32,0.46,4.25,0.96l-0.79,2.86c-0.69-0.4-1.98-0.92-3.39-0.92
			c-1.45,0-2.24,0.69-2.24,1.68c0,1.02,0.76,1.51,2.8,2.24c2.9,1.05,4.24,2.54,4.28,4.9c0,2.9-2.27,5-6.51,5
			c-1.94,0-3.69-0.46-4.87-1.12L268.67,183.07z"/>
		<path class="st3" d="M282.59,163.43h4.08v9.54h0.06c0.49-0.76,1.15-1.38,2.01-1.84c0.79-0.46,1.74-0.72,2.76-0.72
			c2.73,0,5.6,1.81,5.6,6.94v9.44h-4.05v-8.98c0-2.34-0.85-4.08-3.09-4.08c-1.58,0-2.7,1.05-3.12,2.27
			c-0.13,0.33-0.16,0.76-0.16,1.22v9.58h-4.08V163.43z"/>
		<path class="st3" d="M304.28,179.91c0.1,2.9,2.37,4.15,4.94,4.15c1.88,0,3.22-0.26,4.44-0.72l0.59,2.8
			c-1.38,0.56-3.29,0.99-5.59,0.99c-5.2,0-8.26-3.19-8.26-8.1c0-4.44,2.7-8.62,7.83-8.62c5.2,0,6.91,4.28,6.91,7.8
			c0,0.76-0.07,1.35-0.13,1.71H304.28z M311.32,177.08c0.03-1.48-0.63-3.91-3.33-3.91c-2.5,0-3.55,2.27-3.72,3.91H311.32z"/>
		<path class="st3" d="M333.17,163.43v18.85c0,1.64,0.06,3.42,0.13,4.51h-3.62l-0.16-2.53h-0.07c-0.95,1.78-2.9,2.9-5.23,2.9
			c-3.82,0-6.84-3.26-6.84-8.19c-0.03-5.36,3.32-8.56,7.17-8.56c2.21,0,3.78,0.92,4.51,2.11h0.06v-9.08H333.17z M329.12,177.45
			c0-0.33-0.03-0.72-0.1-1.05c-0.36-1.58-1.64-2.86-3.49-2.86c-2.6,0-4.05,2.3-4.05,5.3c0,2.93,1.45,5.07,4.01,5.07
			c1.65,0,3.09-1.12,3.49-2.86c0.1-0.36,0.13-0.76,0.13-1.18V177.45z"/>
		<path class="st3" d="M348.64,166.29c0,1.22-0.89,2.17-2.3,2.17c-1.35,0-2.24-0.96-2.24-2.17c0-1.25,0.92-2.21,2.27-2.21
			C347.75,164.08,348.61,165.04,348.64,166.29z M344.33,186.79v-16.03h4.08v16.03H344.33z"/>
		<path class="st3" d="M352.75,175.54c0-1.84-0.03-3.39-0.13-4.77h3.55l0.2,2.4h0.1c0.69-1.25,2.43-2.77,5.1-2.77
			c2.8,0,5.69,1.81,5.69,6.88v9.51h-4.05v-9.05c0-2.3-0.85-4.05-3.06-4.05c-1.61,0-2.73,1.15-3.16,2.37
			c-0.13,0.36-0.16,0.85-0.16,1.32v9.41h-4.08V175.54z"/>
		<path class="st3" d="M377.17,169.05h-0.07l-3.91,1.97l-0.69-3.06l5.2-2.57h3.39v21.39h-3.92V169.05z"/>
		<path class="st3" d="M390.11,183.89c0.63,0.07,1.25,0.03,2.24-0.07c1.58-0.13,3.16-0.69,4.34-1.64c1.38-1.12,2.34-2.73,2.73-4.74
			l-0.07-0.03c-1.09,1.22-2.6,1.91-4.67,1.91c-3.72,0-6.48-2.7-6.48-6.65c0-4.08,3.16-7.63,7.73-7.63c4.97,0,7.63,3.92,7.63,9.11
			c0,4.57-1.51,7.83-3.72,9.94c-1.88,1.75-4.44,2.73-7.3,2.93c-0.92,0.1-1.84,0.1-2.44,0.06V183.89z M392.21,172.44
			c0.03,2.21,1.28,3.92,3.52,3.92c1.65,0,2.83-0.76,3.45-1.78c0.13-0.26,0.23-0.59,0.23-1.15c0.03-2.9-1.05-5.4-3.69-5.4
			C393.69,168.03,392.21,169.84,392.21,172.44z"/>
		<path class="st3" d="M407.75,183.89c0.63,0.07,1.25,0.03,2.24-0.07c1.58-0.13,3.16-0.69,4.34-1.64c1.38-1.12,2.34-2.73,2.73-4.74
			l-0.06-0.03c-1.09,1.22-2.6,1.91-4.67,1.91c-3.72,0-6.48-2.7-6.48-6.65c0-4.08,3.16-7.63,7.73-7.63c4.97,0,7.63,3.92,7.63,9.11
			c0,4.57-1.51,7.83-3.72,9.94c-1.88,1.75-4.44,2.73-7.3,2.93c-0.92,0.1-1.84,0.1-2.44,0.06V183.89z M409.85,172.44
			c0.03,2.21,1.28,3.92,3.52,3.92c1.64,0,2.83-0.76,3.45-1.78c0.13-0.26,0.23-0.59,0.23-1.15c0.03-2.9-1.05-5.4-3.69-5.4
			C411.33,168.03,409.85,169.84,409.85,172.44z"/>
		<path class="st3" d="M437.33,168.76h-8.23l-0.62,4.28c0.49-0.06,0.92-0.1,1.55-0.1c1.88,0,3.75,0.43,5.2,1.38
			c1.61,1.02,2.8,2.83,2.8,5.43c0,4.08-3.39,7.4-8.65,7.4c-2.47,0-4.54-0.63-5.66-1.25l0.82-3.06c0.92,0.49,2.76,1.12,4.71,1.12
			c2.37,0,4.64-1.35,4.64-3.92c0-2.44-1.81-4.05-6.09-4.05c-1.18,0-2.07,0.07-2.93,0.2l1.42-10.79h11.06V168.76z"/>
	</g>
	<g id="XMLID_503_">
		<g>
			<path id="XMLID_239_" class="st4" d="M461.72,178.96l-1.71,4.55c-1.63-0.64-3.23-0.96-4.81-0.96c-2.19,0-3.88,0.32-5.07,0.96
				c0.53,1.95,0.79,3.54,0.79,4.77c0,0.96-0.17,2.22-0.53,3.76c-0.44,1.9-0.92,2.94-1.44,3.15l-1.79-11.42
				c-0.06-0.47,0.23-1.12,0.87-1.97c0.53-0.73,1.05-1.3,1.58-1.71c0.52-0.41,2.13-1.03,4.81-1.88c-0.58-0.9-1.33-1.36-2.23-1.36
				c-0.61,0-1.3,0.34-2.06,1.01c-0.61,0.55-1.22,1.09-1.83,1.62c1.6-4.9,3.56-7.35,5.86-7.35c1.08,0,2.46,0.91,4.16,2.71
				C459.45,176.22,460.58,177.59,461.72,178.96z"/>
			<path id="XMLID_237_" class="st4" d="M473.75,186.44h-6.65l-1.53-17.15c0-0.2,0.44-0.88,1.31-2.01c0.82-1.05,1.37-1.71,1.66-1.97
				c0.17,2.66,0.35,5.31,0.53,7.96c0.26,3.56,0.58,6.11,0.96,7.65c0.09,0.47,0.56,0.7,1.4,0.7h2.32V186.44z"/>
			<path id="XMLID_235_" class="st4" d="M492.99,181.54l-2.84,4.9h-18.02v-4.81h3.24c0-0.5,0.07-1.24,0.22-2.23
				c0.41-1.28,1.61-2.69,3.61-4.22c2-1.53,3.65-2.3,4.97-2.3c1.57,0,2.97,0.7,4.2,2.1c1.05,1.23,1.76,2.68,2.14,4.37
				c-1.92-1.05-2.95-1.6-3.06-1.66c-0.88-0.35-2.04-0.53-3.5-0.53c-2.1,0-3.67,0.26-4.72,0.79l-0.04-0.04
				c-0.03,0-0.04,0.06-0.04,0.17c0,0.21,0.65,0.83,1.95,1.88c1.3,1.05,2.08,1.57,2.34,1.57H492.99z"/>
			<path id="XMLID_232_" class="st4" d="M525.1,186.44h-2.84c-0.67,0-1.29-0.31-1.86-0.92c-0.57-0.61-0.91-1.27-1.03-1.97
				l-1.66,2.89h-12.77c-1.37,0-2.5-0.45-3.39-1.33c-0.89-0.89-1.34-2.01-1.34-3.35c0-0.96,0.3-2.39,0.92-4.29
				c0.67-2.13,1.33-3.19,1.97-3.19h0.61v0.48c-0.82,1.84-1.22,3.06-1.22,3.67c0,0.79,0.35,1.5,1.05,2.14
				c0.7,0.64,1.46,0.96,2.27,0.96h12.9c0.12-0.26,0.31-1.52,0.57-3.76c0.64-0.96,1.65-2.16,3.02-3.59v2.41
				c0,0.35-0.06,0.86-0.18,1.53c-0.12,0.67-0.17,1.18-0.17,1.53c0,1.31,0.61,1.97,1.84,1.97h1.31V186.44z M517.84,169.73
				c-0.12,0.26-0.57,0.85-1.36,1.77c-0.79,0.92-1.27,1.38-1.44,1.38c-0.35,0-1.65-0.69-3.89-2.06l-2.1,1.97
				c-1.4-0.47-2.71-1.15-3.94-2.06c0.26-0.47,0.71-1.01,1.36-1.62c0.5-0.53,0.99-1.04,1.49-1.53c0.32,0.26,0.94,0.66,1.86,1.21
				c0.92,0.54,1.48,0.81,1.68,0.81c0.06,0,0.45-0.3,1.18-0.92c0.41-0.35,0.83-0.71,1.27-1.09L517.84,169.73z"/>
			<path id="XMLID_230_" class="st4" d="M533.63,186.44h-3.85c-0.03-0.38-0.16-0.79-0.39-1.23c-0.15,0.09-0.38,0.31-0.7,0.68
				c-0.32,0.37-0.61,0.55-0.88,0.55h-3.85v-4.81h4.94c0.38-0.7,0.57-1.46,0.57-2.27c0-0.41,0.42-1.09,1.27-2.06
				c0.85-0.96,1.49-1.53,1.93-1.7l0.09,1.09c0,0.79-0.44,2.43-1.31,4.94h2.19V186.44z"/>
			<path id="XMLID_228_" class="st4" d="M547.66,186.44h-3.63c-0.12-0.26-0.3-0.67-0.57-1.23c-0.21,0.26-0.5,0.67-0.88,1.23h-5.86
				c-0.38-0.53-0.67-0.79-0.87-0.79c-0.09,0-0.25,0.13-0.5,0.39c-0.25,0.26-0.41,0.4-0.5,0.4h-3.1v-4.81h3.46
				c0.26-0.26,0.39-0.79,0.39-1.57c0-0.41,0.44-1.21,1.31-2.41c0.79-1.05,1.41-1.78,1.88-2.19c0.09,0.17,0.13,0.34,0.13,0.48
				c0,1.78-0.25,3.67-0.74,5.69c0.17-0.09,1.28-0.09,3.32,0c0.14-0.17,0.22-0.35,0.22-0.53c0-0.17-0.04-0.43-0.13-0.77
				c-0.09-0.33-0.13-0.59-0.13-0.76c0-0.35,0.39-1.01,1.18-1.99c0.79-0.97,1.36-1.57,1.7-1.77c0.11,0.47,0.17,1.08,0.17,1.84
				c0,0.15,0,0.36,0,0.66c0,0.29,0,0.5,0,0.61c0,1.81,0.67,2.71,2.01,2.71h1.14V186.44z"/>
			<path id="XMLID_226_" class="st4" d="M556.02,186.44h-3.85c-0.03-0.38-0.16-0.79-0.4-1.23c-0.14,0.09-0.38,0.31-0.7,0.68
				c-0.32,0.37-0.61,0.55-0.87,0.55h-3.85v-4.81h4.94c0.38-0.7,0.57-1.46,0.57-2.27c0-0.41,0.42-1.09,1.27-2.06
				c0.84-0.96,1.49-1.53,1.92-1.7l0.09,1.09c0,0.79-0.44,2.43-1.31,4.94h2.19V186.44z"/>
			<path id="XMLID_224_" class="st4" d="M567.35,180.58c0,0.96-0.19,1.97-0.57,3.02c-0.35,0.93-0.71,1.88-1.09,2.84h-6.65
				c-0.09-0.2-0.25-0.44-0.48-0.7c-0.15,0.15-0.38,0.38-0.7,0.7h-3.63v-4.81h4.16c0-0.41,0.12-1.02,0.35-1.84
				c1.17-2.22,2.29-3.5,3.37-3.85v0.3c0,0.38-0.22,1.21-0.66,2.5c-0.44,1.28-0.66,2.19-0.66,2.71c0,0.06,0.06,0.12,0.17,0.17h3.1
				c0.09-0.09,0.13-0.17,0.13-0.26c0-0.17-0.03-0.43-0.09-0.77c-0.06-0.34-0.09-0.59-0.09-0.77c0-0.52,0.45-1.34,1.36-2.45
				c0.76-0.96,1.41-1.65,1.97-2.05V180.58z"/>
			<path id="XMLID_222_" class="st4" d="M576.18,163.04c-0.15,0.35-0.45,0.8-0.92,1.36c-1.2-0.03-2.79,0.56-4.77,1.75
				c0.03-0.26,0.26-0.58,0.7-0.96c0.35-0.26,0.7-0.53,1.05-0.79c-0.38-0.12-0.76-0.23-1.14-0.35c-0.53-0.2-0.79-0.39-0.79-0.57
				c0-0.79,0.33-1.53,0.98-2.23c0.66-0.7,1.38-1.05,2.16-1.05c0.26,0,0.55,0.08,0.85,0.24c0.31,0.16,0.46,0.37,0.46,0.64
				c0-0.03-0.28,0.35-0.83,1.14c-0.87-0.46-1.28-0.7-1.22-0.7c-0.15,0-0.54,0.19-1.18,0.57
				C571.83,162.72,573.38,163.04,576.18,163.04z"/>
			<path id="XMLID_220_" class="st4" d="M579.77,186.44h-6.65l-1.53-17.15c0-0.2,0.44-0.88,1.31-2.01c0.81-1.05,1.37-1.71,1.66-1.97
				c0.17,2.66,0.35,5.31,0.53,7.96c0.26,3.56,0.58,6.11,0.96,7.65c0.09,0.47,0.56,0.7,1.4,0.7h2.32V186.44z"/>
			<path id="XMLID_217_" class="st4" d="M590.74,179.62c0,1.55-0.49,3.82-1.49,6.82h-11.2v-4.81h9.36c-0.32-1.72-1.23-3.4-2.71-5.03
				l2.58-4.51C589.59,174.4,590.74,176.91,590.74,179.62z M591.18,167.46c-0.67,1.08-1.59,2.1-2.76,3.06l-3.76-1.97
				c-0.32,0.29-0.96,0.91-1.92,1.84c-1.02-0.29-2.32-0.96-3.89-2.01l2.76-2.97c1.72,1.28,2.86,1.92,3.41,1.92l2.32-1.92
				L591.18,167.46z"/>
		</g>
	</g>
</g>
</svg>
